<svg xmlns="http://www.w3.org/2000/svg" viewBox="0 0 48 48" width="48px" height="48px"><path fill="#0277BD" d="M45,35c0,2.209-1.791,4-4,4H7c-2.209,0-4-1.791-4-4V13c0-2.209,1.791-4,4-4h34c2.209,0,4,1.791,4,4V35z"/><path fill="#FFF" d="M15.796,18.067l-1.58,3.809h2.738L15.796,18.067z M34.732,18.067l-1.58,3.809h2.738L34.732,18.067z M22.723,15.937h-4.295v9.698h1.645v-3.127h1.717l1.414,3.127h1.866l-1.667-3.491c0.919-0.311,1.32-1.169,1.32-2.269 C24.724,17.479,24.133,15.937,22.723,15.937z M22.912,18.782c0,0.763-0.385,1.196-1.229,1.196h-1.604v-2.713h1.47 C22.375,17.265,22.912,17.646,22.912,18.782z M30.367,15.937h-4.57v9.698h4.433v-1.46h-2.788v-2.566h2.54v-1.443h-2.54v-2.769h2.926 V15.937z M16.672,25.635h2.07l-3.816-9.698h-2.158l-3.821,9.698h2.03l0.775-2.01h4.166L16.672,25.635z M35.607,25.635h2.07 l-3.816-9.698h-2.158l-3.821,9.698h2.03l0.775-2.01h4.166L35.607,25.635z"/></svg>