<svg xmlns="http://www.w3.org/2000/svg" viewBox="0 0 48 48" width="48px" height="48px">
    <path fill="#FF9800" d="M5,35c0,2.209,1.791,4,4,4h30c2.209,0,4-1.791,4-4V13c0-2.209-1.791-4-4-4H9c-2.209,0-4,1.791-4,4V35z"/>
    <path fill="#FFF" d="M19.3,24c0,3.5-2.5,6.3-6.3,6.3c-3.8,0-6.3-2.8-6.3-6.3s2.5-6.3,6.3-6.3C16.8,17.7,19.3,20.5,19.3,24z M13,28.9 c3,0,4.9-2.3,4.9-4.9s-1.9-4.9-4.9-4.9s-4.9,2.3-4.9,4.9S10,28.9,13,28.9z M22.3,18.2v11.6h-1.3V18.2H22.3z M28.3,26.1 c0.7,0.2,2.1,0.4,2.1,1.5c0,1-1.1,1.4-2.1,1.4c-0.9,0-1.8-0.2-2.4-0.5l-0.3,1.1c0.7,0.3,1.7,0.6,2.8,0.6c1.8,0,3.3-0.8,3.3-2.7 c0-2-2.5-2.3-2.5-3.3c0-0.7,0.7-1,1.6-1c0.8,0,1.5,0.2,2,0.4l0.3-1.1c-0.6-0.3-1.4-0.5-2.3-0.5C29,22,27.6,22.9,27.6,24.7 C27.6,26.5,30.1,26.9,30.1,27.8L28.3,26.1z M37.4,23.3l-1.3,0.6c-0.3,0.1-0.6,0.2-0.6,0.6c0,0.5,0.6,0.8,1.3,0.8 c0.8,0,1.5-0.3,2-0.6l0.4,1.1c-0.6,0.4-1.5,0.7-2.6,0.7c-1.6,0-2.4-0.8-2.4-2c0-1.2,0.9-2.2,2.5-2.9l1.2-0.5 c0.3-0.1,0.5-0.2,0.5-0.5c0-0.4-0.5-0.7-1.2-0.7c-0.7,0-1.3,0.2-1.8,0.5l-0.4-1.1c0.6-0.3,1.5-0.6,2.4-0.6c1.5,0,2.3,0.8,2.3,1.9 C39.6,21.9,38.7,22.7,37.4,23.3z"/>
</svg>