<svg xmlns="http://www.w3.org/2000/svg" viewBox="0 0 48 48" width="48px" height="48px"><path fill="#37474F" d="M45,35c0,2.209-1.791,4-4,4H7c-2.209,0-4-1.791-4-4V13c0-2.209,1.791-4,4-4h34c2.209,0,4,1.791,4,4V35z"/><path fill="#FF3D00" d="M31,24c0-3.653-1.376-6.976-3.621-9.45C29.325,13.534,31.597,13,34,13c6.075,0,11,4.925,11,11 s-4.925,11-11,11c-2.403,0-4.675-0.534-6.621-1.55C29.624,30.976,31,27.653,31,24z"/><path fill="#FFC107" d="M20.621,14.55C18.376,13.534,16.104,13,14,13c-6.075,0-11,4.925-11,11s4.925,11,11,11 c2.104,0,4.376-0.534,6.621-1.55C18.376,30.976,17,27.653,17,24S18.376,17.024,20.621,14.55z"/><path fill="#FF9800" d="M27.379,14.55C29.624,17.024,31,20.347,31,24s-1.376,6.976-3.621,9.45 c-2.245-2.474-3.621-5.797-3.621-9.45S25.134,17.024,27.379,14.55z"/></svg>