<svg xmlns="http://www.w3.org/2000/svg" viewBox="0 0 48 48" width="48px" height="48px"><path fill="#1565C0" d="M45,35c0,2.209-1.791,4-4,4H7c-2.209,0-4-1.791-4-4V13c0-2.209,1.791-4,4-4h34c2.209,0,4,1.791,4,4V35z"/><path fill="#FFF" d="M15.186,19l-1.626,7.76H13.36l1.627-7.76H15.186z M28.188,30.5h-1.7l-1.059-5.249c-0.036-0.179-0.438-1.161-1.445-1.535 c-0.633-0.236-1.69-0.492-2.522-0.633l0.239-1.136c0.836,0.228,2.763,0.676,3.803,1.43c0.787,0.57,0.868,1.051,0.963,1.523 l0.581,2.955l1.992-9.356h1.766L28.188,30.5z M34.654,19.525c-0.717-0.302-1.553-0.518-2.695-0.518c-2.965,0-5.032,1.575-5.047,3.83 c-0.019,1.669,1.495,2.596,2.637,3.153c1.165,0.568,1.56,0.932,1.56,1.436c-0.004,0.775-0.931,1.137-1.793,1.137 c-1.199,0-1.835-0.182-2.813-0.617l-0.434-0.204l-0.432,2.682c0.719,0.334,2.043,0.625,3.417,0.639c3.221,0,5.32-1.589,5.342-4.052 c0.012-1.352-0.806-2.389-2.573-3.231c-1.069-0.537-1.724-0.903-1.724-1.457c0-0.501,0.564-1.016,1.783-1.016 c1.02,0,1.762,0.22,2.33,0.499L34.654,19.525z M11.432,27.266L9.237,30.5H7.34l3.355-7.771c0.445-1.172,0.891-2.035,1.326-2.633 c0.254-0.349,0.529-0.596,0.996-0.596h1.805L11.432,27.266z"/></svg>